<?xml version="1.0" encoding="UTF-8" standalone="no"?>
<svg
   width="100%"
   height="100%"
   viewBox="0 0 170 54"
   version="1.1"
   id="ffacet_logo_svg"
   xml:space="preserve"
   xmlns="http://www.w3.org/2000/svg"
   xmlns:svg="http://www.w3.org/2000/svg"><defs
     id="defs1" /><g
     id="layer1"><g
       id="g34"
       transform="translate(-22.818133,-105.9082)"><path
         style="fill:#006A00;fill-opacity:1"
         d="m 23.93259,145.86915 c 0.559515,-0.62843 0.617361,-1.70875 0.617361,-11.52958 V 123.5034 l -0.865909,-0.86591 -0.865909,-0.86591 h 7.354555 c 8.152227,0 7.787949,-0.11288 7.777417,2.41011 -0.003,0.71173 -0.122034,1.12611 -0.264583,0.92083 -0.890024,-1.28165 -2.011644,-1.56705 -6.15851,-1.56705 h -4.154838 v 4.40972 4.40973 h 4.056944 4.056945 v 0.88194 0.88194 h -4.056945 -4.056944 v 4.55905 c 0,4.40358 -0.03151,4.59649 -0.923966,5.65711 -0.508181,0.60394 -1.420994,1.35222 -2.028472,1.66283 -1.089269,0.55697 -1.09599,0.55519 -0.487146,-0.12864 z m 85.81319,-0.0968 c 0.66071,-0.73994 0.71272,-1.37644 0.81831,-10.01424 0.12847,-10.51044 -0.003,-11.96833 -1.18331,-13.14892 l -0.83765,-0.83765 h 7.40337 c 5.61502,0 7.43619,0.10652 7.53927,0.44098 0.0747,0.24253 0.2299,1.15534 0.34479,2.02847 0.20453,1.55441 0.19595,1.57181 -0.41156,0.83504 -1.07734,-1.30657 -2.02548,-1.5406 -6.2417,-1.5406 h -4.08013 v 4.40972 4.40973 h 4.25787 c 4.21378,0 4.2567,0.008 4.14513,0.79375 -0.10865,0.76507 -0.26245,0.79734 -4.25787,0.89314 l -4.14513,0.0994 v 4.54784 c 0,4.39151 -0.0318,4.5856 -0.92397,5.64592 -0.50818,0.60394 -1.42099,1.35222 -2.02847,1.66283 l -1.10451,0.56476 z M 51.510874,143.09234 C 50.4725,142.57995 49.81676,141.51038 48.86218,138.77207 l -0.399511,-1.14604 -4.440858,0.0984 -4.440857,0.0985 -1.140058,2.64583 c -0.976565,2.26641 -1.277142,2.66252 -2.095977,2.76215 -0.687165,0.0836 -0.900544,-0.0156 -0.758955,-0.35278 0.108331,-0.258 1.336968,-3.08846 2.730305,-6.28992 1.393336,-3.20146 2.892881,-6.69396 3.332322,-7.76111 1.540012,-3.73981 1.638745,-3.88056 2.722274,-3.88056 0.727401,0 1.096158,0.22546 1.316455,0.80489 0.168309,0.44268 0.631195,1.51425 1.028636,2.38125 0.397441,0.867 1.928899,4.35449 3.403241,7.74997 1.474342,3.39549 2.985151,6.43172 3.357353,6.74718 1.245404,1.05555 -0.11513,1.37568 -1.965676,0.46251 z m -5.54175,-11.09024 c -0.980639,-2.32833 -1.89326,-4.23333 -2.028047,-4.23333 -0.227177,0 -3.516125,7.69654 -3.516125,8.22816 0,0.13118 1.648609,0.2385 3.663576,0.2385 h 3.663577 z m 13.064855,11.38006 -2.38125,-0.12341 v -8.19566 c 0,-6.63479 -0.09863,-8.33649 -0.517893,-8.93506 -0.514566,-0.73465 -0.49111,-0.741 3.651418,-0.98824 4.938529,-0.29476 6.64484,0.0495 7.953222,1.60437 1.373158,1.63191 1.265922,3.61375 -0.272883,5.0432 l -1.18058,1.09668 1.621553,0.88195 c 3.113918,1.69362 3.730821,5.35119 1.331622,7.89509 -1.773213,1.88015 -3.03383,2.09275 -10.205209,1.72108 z m 7.414883,-2.06109 c 0.465373,-0.30492 1.080523,-1.11538 1.366999,-1.80102 0.441039,-1.05555 0.45004,-1.47036 0.05873,-2.70658 -0.653719,-2.06522 -2.646081,-3.04748 -6.181333,-3.04748 h -2.571083 v 4.03761 4.03762 l 1.675694,0.14931 c 2.475384,0.22058 4.693706,-0.0422 5.650993,-0.66946 z m -1.714415,-9.12595 c 1.250416,-0.64661 1.88733,-2.13875 1.512923,-3.54441 -0.407782,-1.53096 -2.159958,-2.33319 -4.832141,-2.21237 l -2.116666,0.0957 -0.101929,3.08681 -0.101929,3.0868 h 2.324309 c 1.342538,0 2.742952,-0.21649 3.315433,-0.51253 z m 14.055088,11.18505 -4.497917,-0.11026 v -8.43093 c 0,-7.19411 -0.08132,-8.51225 -0.554365,-8.98529 -0.503968,-0.50397 -0.44245,-0.55437 0.676703,-0.55437 0.677087,0 1.482177,-0.0964 1.789087,-0.21413 0.499331,-0.19161 0.55802,0.6803 0.55802,8.29028 v 8.50441 h 3.625671 c 2.738266,0 3.82106,-0.13686 4.423969,-0.55915 0.781619,-0.54747 0.79343,-0.53826 0.565349,0.44097 -0.245002,1.05188 -1.08388,1.93494 -1.715054,1.80539 -0.205451,-0.0422 -2.397609,-0.12628 -4.871463,-0.18692 z m 58.683925,-0.18258 c -0.96794,-0.4978 -1.12846,-0.74081 -2.32685,-3.52258 l -0.87388,-2.02847 h -4.37157 -4.37156 l -1.16522,2.82222 c -1.00568,2.43583 -1.28279,2.82223 -2.02402,2.82223 -0.64636,0 -0.8175,-0.15273 -0.69182,-0.61736 0.0918,-0.33955 1.88361,-4.55437 3.9817,-9.36626 3.62835,-8.32152 3.8583,-8.74372 4.70759,-8.64305 0.75886,0.0899 1.09685,0.58249 2.25135,3.28083 3.68465,8.61188 6.08693,13.82767 6.67222,14.48663 0.35578,0.40056 0.64688,0.83712 0.64688,0.97014 0,0.39361 -1.52026,0.26603 -2.43482,-0.20433 z m -4.02056,-7.43348 c -0.94273,-2.45672 -3.23484,-7.87828 -3.42378,-8.09834 -0.13194,-0.15366 -0.9879,1.51322 -1.90213,3.70417 -0.91424,2.19095 -1.75007,4.18198 -1.85739,4.42452 -0.14935,0.33748 0.6919,0.44097 3.58451,0.44097 3.00859,0 3.74276,-0.0961 3.59879,-0.47132 z m 12.14818,7.39665 c -1.69687,-0.61407 -3.81145,-2.50054 -4.72537,-4.21561 -0.64452,-1.20953 -0.78644,-2.04643 -0.78851,-4.65 -0.002,-2.73534 0.11959,-3.39254 0.87941,-4.74602 1.03007,-1.83489 3.34487,-3.71507 5.21238,-4.23372 1.90882,-0.53013 4.967,-0.4508 7.10568,0.18432 1.64057,0.4872 1.83815,0.64501 1.65634,1.32292 -0.11354,0.42335 -0.2086,0.96338 -0.21125,1.20007 -0.003,0.26099 -0.49949,0.0947 -1.26184,-0.4227 -2.52773,-1.71537 -6.66383,-1.50074 -8.75343,0.45422 -1.45853,1.36455 -2.32001,3.46213 -2.32902,5.67082 -0.0113,2.77126 0.66224,4.6054 2.28982,6.23545 2.41436,2.41802 5.86153,2.86868 9.53009,1.24591 l 1.53317,-0.67819 -0.26864,0.76401 c -0.48361,1.37545 -3.02156,2.35498 -6.02319,2.32469 -1.4626,-0.0148 -3.19314,-0.22004 -3.84564,-0.45617 z m -57.198351,-8.22547 c 0,-7.7766 -0.04732,-8.40621 -0.682741,-9.08403 l -0.682741,-0.72829 6.062603,0.0258 6.062605,0.0258 0.11244,1.14608 c 0.10297,1.04965 0.053,1.11427 -0.59417,0.76793 -0.38864,-0.20799 -2.304548,-0.37817 -4.257581,-0.37817 h -3.55097 v 3.16223 3.16222 l 3.439583,0.10097 c 3.262958,0.0958 3.445378,0.14173 3.552318,0.89472 0.1105,0.77806 0.0425,0.79375 -3.439587,0.79375 h -3.552314 v 3.52778 3.52778 h 3.903748 c 2.147061,0 4.210813,-0.16434 4.586113,-0.36519 0.52914,-0.28319 0.682355,-0.25007 0.682355,0.14753 0,1.58796 -0.151195,1.62877 -6.034959,1.62877 h -5.606702 z m 70.202771,0.0138 c 0,-7.28348 -0.0752,-8.44247 -0.58384,-9.00457 -0.56347,-0.62262 -0.37258,-0.64514 5.46805,-0.64514 h 6.0519 v 1.07075 c 0,0.94929 -0.0774,1.02932 -0.68236,0.70555 -0.3753,-0.20085 -2.2803,-0.36519 -4.23334,-0.36519 h -3.55097 v 3.175 3.175 h 3.52778 3.52778 v 0.88195 0.88194 h -3.52778 -3.52778 v 3.52778 3.52778 h 3.90375 c 2.14706,0 4.2225,-0.17059 4.61208,-0.37909 0.63982,-0.34242 0.6973,-0.28271 0.59417,0.61736 l -0.11416,0.99645 -5.73264,0.0969 -5.73264,0.0969 z m 18.69722,0.0517 v -8.29028 h -2.44862 c -1.34675,0 -2.54674,0.15875 -2.66666,0.35278 -0.43491,0.70371 -0.7562,0.32866 -0.60441,-0.70556 l 0.15533,-1.05833 h 6.79908 6.79909 l 0.1521,1.03632 c 0.13179,0.89796 0.0696,0.99215 -0.46593,0.70555 -0.33992,-0.18192 -1.66035,-0.33076 -2.93429,-0.33076 h -2.31624 v 8.29028 8.29028 h -1.23473 -1.23472 z"
         id="path7" /><path
         style="color:#000000;fill:#006A00;stroke-miterlimit:10;-inkscape-stroke:none;paint-order:fill stroke markers"
         d="m 164.28906,105.9082 c -0.91266,0 -1.68945,0.71618 -1.68945,1.62305 0,0.90687 0.77679,1.62305 1.68945,1.62305 0.91266,0 1.69141,-0.71618 1.69141,-1.62305 0,-0.90687 -0.77875,-1.62305 -1.69141,-1.62305 z m 0,1 c 0.40317,0 0.69141,0.28944 0.69141,0.62305 0,0.33361 -0.28824,0.62305 -0.69141,0.62305 -0.40316,0 -0.68945,-0.28944 -0.68945,-0.62305 0,-0.33361 0.28629,-0.62305 0.68945,-0.62305 z"
         id="path8" /><path
         style="color:#000000;fill:#006A00;stroke-miterlimit:10;-inkscape-stroke:none;paint-order:fill stroke markers"
         d="m 155.60547,107.24805 c -0.91266,0 -1.69141,0.71617 -1.69141,1.62304 0,0.90687 0.77875,1.62305 1.69141,1.62305 0.91266,0 1.6914,-0.71618 1.6914,-1.62305 0,-0.90687 -0.77874,-1.62304 -1.6914,-1.62304 z m 0,1 c 0.40316,0 0.6914,0.28944 0.6914,0.62304 0,0.33361 -0.28824,0.62305 -0.6914,0.62305 -0.40317,0 -0.69141,-0.28944 -0.69141,-0.62305 0,-0.3336 0.28824,-0.62304 0.69141,-0.62304 z"
         id="path8-4" /><path
         style="color:#000000;fill:#006A00;stroke-miterlimit:10;-inkscape-stroke:none;paint-order:fill stroke markers"
         d="m 155.45508,115.13672 c -0.91266,0 -1.68945,0.71617 -1.68946,1.62305 0,0.90687 0.7768,1.62304 1.68946,1.62304 0.91266,0 1.6914,-0.71617 1.6914,-1.62304 0,-0.90688 -0.77874,-1.62305 -1.6914,-1.62305 z m 0,1 c 0.40316,0 0.6914,0.28944 0.6914,0.62305 0,0.3336 -0.28824,0.62304 -0.6914,0.62304 -0.40317,0 -0.68946,-0.28944 -0.68946,-0.62304 0,-0.33361 0.28629,-0.62305 0.68946,-0.62305 z"
         id="path8-4-2" /><path
         style="color:#000000;fill:#006A00;stroke-miterlimit:10;-inkscape-stroke:none;paint-order:fill stroke markers"
         d="m 170.51953,109.40625 c -0.91266,0 -1.6914,0.71618 -1.69141,1.62305 0,0.90687 0.77875,1.62304 1.69141,1.62304 0.91266,0 1.69141,-0.71617 1.69141,-1.62304 0,-0.90687 -0.77875,-1.62305 -1.69141,-1.62305 z m 0,1 c 0.40317,0 0.69141,0.28944 0.69141,0.62305 0,0.3336 -0.28824,0.62304 -0.69141,0.62304 -0.40316,0 -0.69141,-0.28944 -0.69141,-0.62304 0,-0.33361 0.28825,-0.62305 0.69141,-0.62305 z"
         id="path8-4-2-9" /><path
         style="color:#000000;fill:#006A00;stroke-miterlimit:10;-inkscape-stroke:none;paint-order:fill stroke markers"
         d="m 174.46484,112.71289 c -0.91265,0 -1.6914,0.71618 -1.6914,1.62305 0,0.90687 0.77875,1.62304 1.6914,1.62304 0.91266,0 1.69141,-0.71617 1.69141,-1.62304 0,-0.90687 -0.77875,-1.62305 -1.69141,-1.62305 z m 0,1 c 0.40317,0 0.69141,0.28944 0.69141,0.62305 0,0.3336 -0.28824,0.62304 -0.69141,0.62304 -0.40316,0 -0.6914,-0.28944 -0.6914,-0.62304 0,-0.33361 0.28824,-0.62305 0.6914,-0.62305 z"
         id="path8-4-2-9-9" /><path
         style="color:#000000;fill:#006A00;stroke-miterlimit:10;-inkscape-stroke:none;paint-order:fill stroke markers"
         d="m 179.08789,110.31836 c -0.91266,0 -1.69141,0.71618 -1.69141,1.62305 0,0.90687 0.77875,1.62304 1.69141,1.62304 0.91266,0 1.69141,-0.71617 1.69141,-1.62304 0,-0.90687 -0.77875,-1.62305 -1.69141,-1.62305 z m 0,1 c 0.40317,0 0.69141,0.28944 0.69141,0.62305 0,0.3336 -0.28824,0.62304 -0.69141,0.62304 -0.40316,0 -0.69141,-0.28944 -0.69141,-0.62304 0,-0.33361 0.28825,-0.62305 0.69141,-0.62305 z"
         id="path8-4-2-9-9-6" /><path
         style="color:#000000;fill:#006A00;stroke-miterlimit:10;-inkscape-stroke:none;paint-order:fill stroke markers"
         d="m 179.08789,119.32617 c -0.91266,0 -1.69141,0.71618 -1.69141,1.62305 0,0.90687 0.77875,1.62305 1.69141,1.62305 0.91266,0 1.69141,-0.71618 1.69141,-1.62305 0,-0.90687 -0.77875,-1.62305 -1.69141,-1.62305 z m 0,1 c 0.40317,0 0.69141,0.28944 0.69141,0.62305 0,0.3336 -0.28824,0.62305 -0.69141,0.62305 -0.40316,0 -0.69141,-0.28945 -0.69141,-0.62305 0,-0.33361 0.28825,-0.62305 0.69141,-0.62305 z"
         id="path8-4-2-9-9-6-7" /><path
         style="color:#000000;fill:#006A00;stroke-miterlimit:10;-inkscape-stroke:none;paint-order:fill stroke markers"
         d="m 188.33398,112.67188 c -0.91265,0 -1.68945,0.71617 -1.68945,1.62304 0,0.90687 0.7768,1.62305 1.68945,1.62305 0.91266,0 1.69141,-0.71618 1.69141,-1.62305 0,-0.90687 -0.77875,-1.62304 -1.69141,-1.62304 z m 0,1 c 0.40317,0 0.69141,0.28944 0.69141,0.62304 0,0.33361 -0.28824,0.62305 -0.69141,0.62305 -0.40316,0 -0.68945,-0.28944 -0.68945,-0.62305 0,-0.3336 0.28629,-0.62305 0.68945,-0.62304 z"
         id="path8-4-2-9-9-6-7-7" /><path
         style="color:#000000;fill:#006A00;stroke-miterlimit:10;-inkscape-stroke:none;paint-order:fill stroke markers"
         d="m 190.78125,121.01758 c -0.91266,0 -1.69141,0.71617 -1.69141,1.62305 0,0.90687 0.77875,1.62304 1.69141,1.62304 0.91266,0 1.69141,-0.71617 1.69141,-1.62304 0,-0.90688 -0.77875,-1.62305 -1.69141,-1.62305 z m 0,1 c 0.40316,0 0.69141,0.28944 0.69141,0.62305 0,0.3336 -0.28825,0.62304 -0.69141,0.62304 -0.40316,0 -0.69141,-0.28944 -0.69141,-0.62304 0,-0.33361 0.28825,-0.62305 0.69141,-0.62305 z"
         id="path8-4-2-9-9-6-7-7-9" /><path
         style="color:#000000;fill:#006A00;stroke-miterlimit:10;-inkscape-stroke:none;paint-order:fill stroke markers"
         d="m 163.08203,148.89258 c -0.91266,0 -1.6914,0.71617 -1.69141,1.62304 0,0.90688 0.77875,1.62305 1.69141,1.62305 0.91266,0 1.69141,-0.71617 1.69141,-1.62305 0,-0.90687 -0.77875,-1.62304 -1.69141,-1.62304 z m 0,1 c 0.40317,0 0.69141,0.28944 0.69141,0.62304 0,0.33361 -0.28824,0.62305 -0.69141,0.62305 -0.40316,0 -0.69141,-0.28944 -0.69141,-0.62305 0,-0.3336 0.28825,-0.62304 0.69141,-0.62304 z"
         id="path8-4-2-9-9-6-7-7-9-6" /><path
         style="color:#000000;fill:#006A00;stroke-miterlimit:10;-inkscape-stroke:none;paint-order:fill stroke markers"
         d="m 171.44336,156.38477 c -0.91266,0 -1.69141,0.71617 -1.69141,1.62304 0,0.90687 0.77875,1.62305 1.69141,1.62305 0.91266,0 1.69141,-0.71618 1.69141,-1.62305 0,-0.90687 -0.77875,-1.62304 -1.69141,-1.62304 z m 0,1 c 0.40316,0 0.69141,0.28944 0.69141,0.62304 0,0.33361 -0.28825,0.62305 -0.69141,0.62305 -0.40317,0 -0.69141,-0.28944 -0.69141,-0.62305 0,-0.3336 0.28824,-0.62304 0.69141,-0.62304 z"
         id="path8-4-2-9-9-6-7-7-9-6-5" /><path
         style="color:#000000;fill:#006A00;stroke-miterlimit:10;-inkscape-stroke:none;paint-order:fill stroke markers"
         d="m 179.44141,151.30664 c -0.91266,0 -1.69141,0.71618 -1.69141,1.62305 0,0.90687 0.77875,1.62304 1.69141,1.62304 0.91265,0 1.6914,-0.71617 1.6914,-1.62304 0,-0.90687 -0.77875,-1.62305 -1.6914,-1.62305 z m 0,1 c 0.40316,0 0.6914,0.28944 0.6914,0.62305 0,0.3336 -0.28824,0.62304 -0.6914,0.62304 -0.40317,0 -0.69141,-0.28944 -0.69141,-0.62304 0,-0.33361 0.28824,-0.62305 0.69141,-0.62305 z"
         id="path8-4-2-9-9-6-7-7-9-6-5-4" /><path
         style="color:#000000;fill:#006A00;-inkscape-stroke:none"
         d="m 163.8457,108.80273 -0.0547,14.51172 1,0.004 0.0547,-14.51172 z"
         id="path9" /><path
         style="color:#000000;fill:#006A00;-inkscape-stroke:none"
         d="m 170.98828,144.95898 v 11.92969 h 1 v -11.92969 z"
         id="path9-9" /><path
         style="color:#000000;fill:#006A00;-inkscape-stroke:none"
         d="m 162.75391,144.95312 -0.0566,4.45704 1,0.0117 0.0566,-4.45703 z"
         id="path9-9-5" /><path
         style="color:#000000;fill:#006A00;-inkscape-stroke:none"
         d="m 178.57617,113.03516 0.004,7.13281 h 1 l -0.004,-7.13281 z"
         id="path9-8" /><path
         style="color:#000000;fill:#006A00;-inkscape-stroke:none"
         d="m 169.16602,111.54102 -1.4043,1.52148 -0.0449,10.25195 1,0.004 0.043,-9.86328 1.14062,-1.23438 z"
         id="path9-6" /><g
         id="path10"><path
           style="color:#000000;fill:#ffff00;stroke-miterlimit:10;-inkscape-stroke:none;paint-order:fill stroke markers"
           d="m 171.45002,111.62701 2.25591,2.05296"
           id="path24" /><path
           style="color:#000000;fill:#006A00;stroke-miterlimit:10;-inkscape-stroke:none;paint-order:fill stroke markers"
           d="m 171.78711,111.25781 -0.67383,0.73828 2.25586,2.05274 0.67383,-0.73828 z"
           id="path25" /></g><path
         style="color:#000000;fill:#006A00;stroke-miterlimit:10;-inkscape-stroke:none;paint-order:fill stroke markers"
         d="m 156.88477,109.00781 -0.66993,0.74024 6.15625,5.57617 1.95118,-0.002 v -1 l -1.56641,0.002 z"
         id="path23" /><g
         id="path12"><path
           style="color:#000000;fill:#ffff00;stroke-miterlimit:10;-inkscape-stroke:none;paint-order:fill stroke markers"
           d="m 156.14648,116.75977 8.16895,0.0318"
           id="path20" /><path
           style="color:#000000;fill:#006A00;stroke-miterlimit:10;-inkscape-stroke:none;paint-order:fill stroke markers"
           d="m 156.14844,116.25977 -0.004,1 8.16992,0.0312 0.002,-1 z"
           id="path21" /></g><g
         id="path13"
         style="stroke:none"><path
           style="color:#000000;fill:#006A00;stroke:none;stroke-miterlimit:10;-inkscape-stroke:none;paint-order:fill stroke markers"
           d="m 168.24414,117.1543 -0.006,1 1.07974,-3.1e-4 3.63901,3.29728 5.01367,-0.0527 -0.01,-1 -4.62891,0.0488 -3.70898,-3.28711 z"
           id="path27" /></g><g
         id="path14"><path
           style="color:#000000;fill:#006A00;stroke-miterlimit:10;-inkscape-stroke:none;paint-order:fill stroke markers"
           d="m 187.17187,114.75586 -5.50976,5.6582 -1.68945,-0.01 -0.006,1 2.11328,0.0117 5.80664,-5.96289 z"
           id="path29" /></g><g
         id="path15"><path
           style="color:#000000;fill:#ffff00;stroke-miterlimit:10;-inkscape-stroke:none;paint-order:fill stroke markers"
           d="m 185.062,117.7469 4.86808,4.23424"
           id="path30" /><path
           style="color:#000000;fill:#006A00;stroke-miterlimit:10;-inkscape-stroke:none;paint-order:fill stroke markers"
           d="m 185.39062,117.36914 -0.65625,0.75586 4.86719,4.23438 0.65625,-0.75586 z"
           id="path31" /></g><g
         id="path16"><path
           style="color:#000000;fill:#ffff00;stroke-miterlimit:10;-inkscape-stroke:none;paint-order:fill stroke markers"
           d="m 164.29004,149.9125 3.46821,-3.36041 0.0239,-1.59336"
           id="path32" /><path
           style="color:#000000;fill:#006A00;stroke-miterlimit:10;-inkscape-stroke:none;paint-order:fill stroke markers"
           d="m 167.28125,144.95117 -0.0195,1.38672 -3.32031,3.21484 0.69726,0.71875 3.61719,-3.5039 0.0254,-1.80078 z"
           id="path33" /></g><g
         id="path17"><path
           style="color:#000000;fill:#ffff00;stroke-miterlimit:10;-inkscape-stroke:none;paint-order:fill stroke markers"
           d="M 178.51376,152.14241 171.4879,146.7971"
           id="path18" /><path
           style="color:#000000;fill:#006A00;stroke-miterlimit:10;-inkscape-stroke:none;paint-order:fill stroke markers"
           d="m 171.79102,146.39844 -0.60547,0.79687 7.02539,5.34571 0.60547,-0.79688 z"
           id="path19" /></g></g></g></svg>
